<?xml version="1.0" encoding="UTF-8" standalone="no"?>
<svg
   xmlns:dc="http://purl.org/dc/elements/1.1/"
   xmlns:cc="http://creativecommons.org/ns#"
   xmlns:rdf="http://www.w3.org/1999/02/22-rdf-syntax-ns#"
   xmlns:svg="http://www.w3.org/2000/svg"
   xmlns="http://www.w3.org/2000/svg"
   viewBox="0 0 1530 990"
   height="990"
   width="1530"
   xml:space="preserve"
   version="1.1"
   id="svg3371"><metadata
     id="metadata3377"><rdf:RDF><cc:Work
         rdf:about=""><dc:format>image/svg+xml</dc:format><dc:type
           rdf:resource="http://purl.org/dc/dcmitype/StillImage" /><dc:title></dc:title></cc:Work></rdf:RDF></metadata><defs
     id="defs3375"><clipPath
       id="clipPath3943"
       clipPathUnits="userSpaceOnUse"><path
         id="path3945"
         d="M 0,792 1224,792 1224,0 0,0 0,792 Z" /></clipPath><clipPath
       id="clipPath19829"
       clipPathUnits="userSpaceOnUse"><path
         id="path19831"
         d="M 0,792 1224,792 1224,0 0,0 0,792 Z" /></clipPath><clipPath
       id="clipPath20947"
       clipPathUnits="userSpaceOnUse"><path
         id="path20949"
         d="M 0,792 1224,792 1224,0 0,0 0,792 Z" /></clipPath><clipPath
       id="clipPath21629"
       clipPathUnits="userSpaceOnUse"><path
         id="path21631"
         d="M 0,792 1224,792 1224,0 0,0 0,792 Z" /></clipPath><clipPath
       id="clipPath21761"
       clipPathUnits="userSpaceOnUse"><path
         id="path21763"
         d="M 0,792 1224,792 1224,0 0,0 0,792 Z" /></clipPath><clipPath
       id="clipPath21819"
       clipPathUnits="userSpaceOnUse"><path
         id="path21821"
         d="M 0,792 1224,792 1224,0 0,0 0,792 Z" /></clipPath><clipPath
       id="clipPath21833"
       clipPathUnits="userSpaceOnUse"><path
         id="path21835"
         d="M 0,792 1224,792 1224,0 0,0 0,792 Z" /></clipPath><clipPath
       id="clipPath21849"
       clipPathUnits="userSpaceOnUse"><path
         id="path21851"
         d="M 0,792 1224,792 1224,0 0,0 0,792 Z" /></clipPath></defs><g
     transform="matrix(1.25,0,0,-1.25,0,990)"
     id="g3379"><g
       transform="translate(966.9892,255.2516)"
       id="g3381"><path
         id="path3383"
         style="fill:none;stroke:#00bfb3;stroke-width:0.5;stroke-linecap:round;stroke-linejoin:round;stroke-miterlimit:10;stroke-dasharray:none;stroke-opacity:1"
         d="M 0,0 -20.16,0" /></g><g
       transform="translate(820.7089,516.1315)"
       id="g3385"><path
         id="path3387"
         style="fill:none;stroke:#474242;stroke-width:2;stroke-linecap:round;stroke-linejoin:round;stroke-miterlimit:10;stroke-dasharray:none;stroke-opacity:1"
         d="M 0,0 5.64,0" /></g><g
       transform="translate(1184.5487,358.8122)"
       id="g3389"><path
         id="path3391"
         style="fill:none;stroke:#000000;stroke-width:3;stroke-linecap:round;stroke-linejoin:round;stroke-miterlimit:10;stroke-dasharray:none;stroke-opacity:1"
         d="m 0,0 0,-103.44 -10.8,0" /></g><g
       transform="translate(1184.5487,363.1315)"
       id="g3393"><path
         id="path3395"
         style="fill:none;stroke:#000000;stroke-width:3;stroke-linecap:round;stroke-linejoin:round;stroke-miterlimit:10;stroke-dasharray:none;stroke-opacity:1"
         d="M 0,0 0,88.2" /></g><g
       transform="translate(1184.5487,455.652)"
       id="g3397"><path
         id="path3399"
         style="fill:none;stroke:#000000;stroke-width:3;stroke-linecap:round;stroke-linejoin:round;stroke-miterlimit:10;stroke-dasharray:none;stroke-opacity:1"
         d="m 0,0 0,64.32 -844.68,0 -37.32,-10.08 -53.76,-23.88 -24,-15.6 -27.36,-17.88 -2.52,-45.96" /></g><g
       transform="translate(194.309,391.5719)"
       id="g3401"><path
         id="path3403"
         style="fill:none;stroke:#000000;stroke-width:3;stroke-linecap:round;stroke-linejoin:round;stroke-miterlimit:10;stroke-dasharray:none;stroke-opacity:1"
         d="M 0,0 -1.44,-28.855" /></g><g
       transform="translate(1159.4291,255.3717)"
       id="g3405"><path
         id="path3407"
         style="fill:none;stroke:#000000;stroke-width:3;stroke-linecap:round;stroke-linejoin:round;stroke-miterlimit:10;stroke-dasharray:none;stroke-opacity:1"
         d="M 0,0 -165.16,0" /></g><g
       transform="translate(976.9492,255.3717)"
       id="g3409"><path
         id="path3411"
         style="fill:none;stroke:#000000;stroke-width:3;stroke-linecap:round;stroke-linejoin:round;stroke-miterlimit:10;stroke-dasharray:none;stroke-opacity:1"
         d="m 0,0 -670.56,0.72 -79.68,-12.96 -43.44,-16.32" /></g><path
       id="path3413"
       style="fill:none;stroke:#000000;stroke-width:3;stroke-linecap:round;stroke-linejoin:round;stroke-miterlimit:10;stroke-dasharray:none;stroke-opacity:1"
       d="m 29.054,226.812 119.994,0 0,176.009 -119.994,0 0,-176.009 z" /><path
       id="path3415"
       style="fill:none;stroke:#000000;stroke-width:3;stroke-linecap:round;stroke-linejoin:round;stroke-miterlimit:10;stroke-dasharray:none;stroke-opacity:1"
       d="m 149.048,412.179 -119.994,0 0,36.571 119.994,0 0,-36.571 z" /><g
       transform="translate(191.4291,347.2917)"
       id="g3417"><path
         id="path3419"
         style="fill:none;stroke:#474242;stroke-width:2;stroke-linecap:round;stroke-linejoin:round;stroke-miterlimit:10;stroke-dasharray:none;stroke-opacity:1"
         d="m 0,0 -2.4,-44.76 26.04,0 19.8,9.6 21.96,9.36 40.32,16.92 42.84,9.72 485.294,0 359.266,0.721" /></g><g
       transform="translate(337.3491,518.2917)"
       id="g3421"><path
         id="path3423"
         style="fill:none;stroke:#474242;stroke-width:2;stroke-linecap:round;stroke-linejoin:round;stroke-miterlimit:10;stroke-dasharray:none;stroke-opacity:1"
         d="m 0,0 0,-25.68 5.76,0" /></g><g
       transform="translate(343.3491,480.9723)"
       id="g3425"><path
         id="path3427"
         style="fill:none;stroke:#474242;stroke-width:2;stroke-linecap:round;stroke-linejoin:round;stroke-miterlimit:10;stroke-dasharray:none;stroke-opacity:1"
         d="m 0,0 -5.64,0 0,-47.36 11.28,0" /></g><g
       transform="translate(360.8691,433.612)"
       id="g3429"><path
         id="path3431"
         style="fill:none;stroke:#474242;stroke-width:2;stroke-linecap:round;stroke-linejoin:round;stroke-miterlimit:10;stroke-dasharray:none;stroke-opacity:1"
         d="M 0,0 141.24,0" /></g><g
       transform="translate(513.3891,433.612)"
       id="g3433"><path
         id="path3435"
         style="fill:none;stroke:#474242;stroke-width:2;stroke-linecap:round;stroke-linejoin:round;stroke-miterlimit:10;stroke-dasharray:none;stroke-opacity:1"
         d="m 0,0 18.84,0 0,85.64" /></g><g
       transform="translate(822.9892,433.692)"
       id="g3437"><path
         id="path3439"
         style="fill:none;stroke:#474242;stroke-width:2;stroke-linecap:round;stroke-linejoin:round;stroke-miterlimit:10;stroke-dasharray:none;stroke-opacity:1"
         d="M 0,0 -290.28,-0.08" /></g><g
       transform="translate(193.1533,368.4118)"
       id="g3441"><path
         id="path3443"
         style="fill:none;stroke:#474242;stroke-width:2;stroke-linecap:round;stroke-linejoin:round;stroke-miterlimit:10;stroke-dasharray:none;stroke-opacity:1"
         d="m 0,0 102.076,48 216.24,0 311.24,0.36" /></g><g
       transform="translate(820.7089,516.1315)"
       id="g3445"><path
         id="path3447"
         style="fill:none;stroke:#474242;stroke-width:2;stroke-linecap:round;stroke-linejoin:round;stroke-miterlimit:10;stroke-dasharray:none;stroke-opacity:1"
         d="M 0,0 5.64,0" /></g><g
       transform="translate(829.1088,485.0514)"
       id="g3449"><path
         id="path3451"
         style="fill:none;stroke:#474242;stroke-width:2;stroke-linecap:round;stroke-linejoin:round;stroke-miterlimit:10;stroke-dasharray:none;stroke-opacity:1"
         d="m 0,0 -5.76,-0.239 0,30.8" /></g><g
       transform="translate(829.1088,382.3317)"
       id="g3453"><path
         id="path3455"
         style="fill:none;stroke:#474242;stroke-width:2;stroke-linecap:round;stroke-linejoin:round;stroke-miterlimit:10;stroke-dasharray:none;stroke-opacity:1"
         d="m 0,0 -5.76,0 0,-30.92" /></g><g
       transform="translate(829.3491,461.5319)"
       id="g3457"><path
         id="path3459"
         style="fill:none;stroke:#474242;stroke-width:2;stroke-linecap:round;stroke-linejoin:round;stroke-miterlimit:10;stroke-dasharray:none;stroke-opacity:1"
         d="m 0,0 -6,0 0,-56.04 5.76,0" /></g><g
       transform="translate(826.3491,350.652)"
       id="g3461"><path
         id="path3463"
         style="fill:none;stroke:#474242;stroke-width:2;stroke-linecap:round;stroke-linejoin:round;stroke-miterlimit:10;stroke-dasharray:none;stroke-opacity:1"
         d="M 0,0 -5.64,0" /></g><g
       transform="translate(194.4291,386.2917)"
       id="g3465"><path
         id="path3467"
         style="fill:none;stroke:#474242;stroke-width:2;stroke-linecap:round;stroke-linejoin:round;stroke-miterlimit:10;stroke-dasharray:none;stroke-opacity:1"
         d="m 0,0 100.68,47.16 42.6,0.16" /></g><g
       transform="translate(295.2289,416.4118)"
       id="g3469"><path
         id="path3471"
         style="fill:none;stroke:#474242;stroke-width:2;stroke-linecap:round;stroke-linejoin:round;stroke-miterlimit:10;stroke-dasharray:none;stroke-opacity:1"
         d="M 0,0 -0.12,17.04" /></g><g
       transform="translate(268.9892,403.4919)"
       id="g3473"><path
         id="path3475"
         style="fill:none;stroke:#474242;stroke-width:2;stroke-linecap:round;stroke-linejoin:round;stroke-miterlimit:10;stroke-dasharray:none;stroke-opacity:1"
         d="M 0,0 -12.16,-82" /></g><g
       transform="translate(307.4692,416.4118)"
       id="g3477"><path
         id="path3479"
         style="fill:none;stroke:#474242;stroke-width:2;stroke-linecap:round;stroke-linejoin:round;stroke-miterlimit:10;stroke-dasharray:none;stroke-opacity:1"
         d="M 0,0 0,-75.96" /></g><g
       transform="translate(338.1889,386.4118)"
       id="g3481"><path
         id="path3483"
         style="fill:none;stroke:#474242;stroke-width:2;stroke-linecap:round;stroke-linejoin:round;stroke-miterlimit:10;stroke-dasharray:none;stroke-opacity:1"
         d="m 0,0 0,-5.52 -30.72,0" /></g><g
       transform="translate(338.1889,369.2516)"
       id="g3489"><path
         id="path3491"
         style="fill:none;stroke:#474242;stroke-width:2;stroke-linecap:round;stroke-linejoin:round;stroke-miterlimit:10;stroke-dasharray:none;stroke-opacity:1"
         d="M 0,0 0,-21.12" /></g><g
       transform="translate(966.9892,332.5319)"
       id="g3493"><path
         id="path3495"
         style="fill:none;stroke:#474242;stroke-width:2;stroke-linecap:round;stroke-linejoin:round;stroke-miterlimit:10;stroke-dasharray:none;stroke-opacity:1"
         d="M 0,0 0,-77.28" /></g><path
       id="path3931"
       style="fill:none;stroke:#00bfb3;stroke-width:0.5;stroke-linecap:round;stroke-linejoin:round;stroke-miterlimit:10;stroke-dasharray:none;stroke-opacity:1"
       d="m 780.775,386.14 -11.596,0 0,23.245 11.596,0 0,-23.245 z" /><path
       id="path3933"
       style="fill:none;stroke:#00bfb3;stroke-width:0.5;stroke-linecap:round;stroke-linejoin:round;stroke-miterlimit:10;stroke-dasharray:none;stroke-opacity:1"
       d="m 792.371,386.14 -11.596,0 0,23.245 11.596,0 0,-23.245 z" /><path
       id="path3935"
       style="fill:none;stroke:#00bfb3;stroke-width:0.5;stroke-linecap:round;stroke-linejoin:round;stroke-miterlimit:10;stroke-dasharray:none;stroke-opacity:1"
       d="m 780.775,362.895 -11.596,0 0,23.245 11.596,0 0,-23.245 z" /><path
       id="path3937"
       style="fill:none;stroke:#00bfb3;stroke-width:0.5;stroke-linecap:round;stroke-linejoin:round;stroke-miterlimit:10;stroke-dasharray:none;stroke-opacity:1"
       d="m 792.371,362.895 -11.596,0 0,23.245 11.596,0 0,-23.245 z" /><g
       id="g19825"><g
         clip-path="url(#clipPath19829)"
         id="g19827"><g
           transform="translate(593.3896,470.9176)"
           id="g19861" /><path
           id="path20927"
           style="fill:#e7e7e7;fill-opacity:1;fill-rule:nonzero;stroke:#999999;stroke-width:0.014;stroke-linecap:round;stroke-linejoin:round;stroke-miterlimit:10;stroke-dasharray:none;stroke-opacity:1"
           d="m 779.184,393.254 -1.281,0 0,7.355 1.281,0 0,-7.355 z" /><path
           id="path20929"
           style="fill:#e7e7e7;fill-opacity:1;fill-rule:nonzero;stroke:#999999;stroke-width:0.014;stroke-linecap:round;stroke-linejoin:round;stroke-miterlimit:10;stroke-dasharray:none;stroke-opacity:1"
           d="m 783.831,393.254 -1.281,0 0,7.355 1.281,0 0,-7.355 z" /><path
           id="path20931"
           style="fill:#e7e7e7;fill-opacity:1;fill-rule:nonzero;stroke:#999999;stroke-width:0.014;stroke-linecap:round;stroke-linejoin:round;stroke-miterlimit:10;stroke-dasharray:none;stroke-opacity:1"
           d="m 779.184,371.101 -1.281,0 0,7.355 1.281,0 0,-7.355 z" /><path
           id="path20933"
           style="fill:#e7e7e7;fill-opacity:1;fill-rule:nonzero;stroke:#999999;stroke-width:0.014;stroke-linecap:round;stroke-linejoin:round;stroke-miterlimit:10;stroke-dasharray:none;stroke-opacity:1"
           d="m 783.831,371.101 -1.281,0 0,7.355 1.281,0 0,-7.355 z" /><g
           transform="translate(304.4653,443.8463)"
           id="g20939" /></g></g></g></svg>